<?xml version="1.0" standalone="no"?>
<!DOCTYPE svg PUBLIC "-//W3C//DTD SVG 20010904//EN"
 "http://www.w3.org/TR/2001/REC-SVG-20010904/DTD/svg10.dtd">
<svg version="1.0" xmlns="http://www.w3.org/2000/svg"
 width="512.000000pt" height="512.000000pt" viewBox="0 0 512.000000 512.000000"
 preserveAspectRatio="xMidYMid meet">

<g transform="translate(0.000000,512.000000) scale(0.100000,-0.100000)"
fill="#000000" stroke="none">
<path d="M2387 4680 c-393 -50 -729 -222 -993 -510 -208 -226 -351 -530 -393
-835 -17 -115 -14 -366 4 -492 88 -599 444 -1257 1030 -1903 192 -211 495
-500 525 -500 19 0 218 181 366 331 605 619 1018 1292 1153 1879 56 242 68
520 32 730 -112 653 -623 1167 -1278 1285 -105 19 -351 27 -446 15z m331 -701
c302 -47 573 -284 678 -592 48 -142 56 -339 19 -487 -25 -99 -116 -275 -182
-352 -298 -348 -812 -415 -1177 -154 -133 95 -226 208 -296 359 -50 108 -70
190 -77 314 -15 265 81 501 280 690 201 191 462 268 755 222z"/>
</g>
</svg>
