<?xml version="1.0" encoding="UTF-8" standalone="no"?>
<svg
   version="1.0"
   width="512.000000pt"
   height="512.000000pt"
   viewBox="0 0 512.000000 512.000000"
   preserveAspectRatio="xMidYMid meet"
   id="svg1"
   sodipodi:docname="pin2.svg"
   inkscape:version="1.3.1 (9b9bdc1480, 2023-11-25, custom)"
   xmlns:inkscape="http://www.inkscape.org/namespaces/inkscape"
   xmlns:sodipodi="http://sodipodi.sourceforge.net/DTD/sodipodi-0.dtd"
   xmlns="http://www.w3.org/2000/svg"
   xmlns:svg="http://www.w3.org/2000/svg">
  <defs
     id="defs1" />
  <sodipodi:namedview
     id="namedview1"
     pagecolor="#ffffff"
     bordercolor="#666666"
     borderopacity="1.0"
     inkscape:showpageshadow="2"
     inkscape:pageopacity="0.0"
     inkscape:pagecheckerboard="0"
     inkscape:deskcolor="#d1d1d1"
     inkscape:document-units="pt"
     showgrid="false"
     inkscape:zoom="1.1337891"
     inkscape:cx="340.89233"
     inkscape:cy="341.33333"
     inkscape:window-width="1850"
     inkscape:window-height="1016"
     inkscape:window-x="0"
     inkscape:window-y="0"
     inkscape:window-maximized="1"
     inkscape:current-layer="svg1" />
  <g
     transform="translate(0.000000,512.000000) scale(0.100000,-0.100000)"
     fill="#000000"
     stroke="none"
     id="g1">
    <path
       d="M2387 4680 c-393 -50 -729 -222 -993 -510 -208 -226 -351 -530 -393 -835 -17 -115 -14 -366 4 -492 88 -599 444 -1257 1030 -1903 192 -211 495 -500 525 -500 19 0 218 181 366 331 605 619 1018 1292 1153 1879 56 242 68 520 32 730 -112 653 -623 1167 -1278 1285 -105 19 -351 27 -446 15z m331 -701 c302 -47 573 -284 678 -592 48 -142 56 -339 19 -487 -25 -99 -116 -275 -182 -352 -298 -348 -812 -415 -1177 -154 -133 95 -226 208 -296 359 -50 108 -70 190 -77 314 -15 265 81 501 280 690 201 191 462 268 755 222z"
       id="path1" />
  </g>
  <path
     style="fill:#473d8a;fill-opacity:0.9;stroke-width:0.881998"
     d="m 321.04737,382.3958 c -23.69105,-4.21743 -44.55488,-15.22219 -62.24673,-32.83244 -16.08844,-16.01423 -28.7143,-40.1712 -32.65205,-62.47292 -1.70023,-9.62937 -1.44684,-33.08594 0.45257,-41.89492 4.95382,-22.97452 15.30949,-42.26959 31.64076,-58.95425 18.18067,-18.57408 38.44125,-29.43997 62.70049,-33.62671 10.13366,-1.74891 30.27755,-1.74393 41.09365,0.0102 37.19856,6.03262 71.09332,33.36869 86.94164,70.11831 7.07075,16.39588 10.33767,38.23589 8.47207,56.63754 -1.64489,16.22475 -4.30271,24.51303 -13.49863,42.09485 -6.88537,13.16424 -11.80994,20.01374 -20.65154,28.72384 -26.61132,26.21552 -66.06515,38.6385 -102.25223,32.19654 z"
     id="path2"
     transform="scale(0.75)" />
  <path
     style="fill:#473d8a;fill-opacity:0.9;stroke-width:0.881998"
     d="M 337.47184,621.0061 C 326.23725,612.71748 285.55459,572.52466 265.5254,549.92593 195.69902,471.14154 152.105,392.45771 137.20382,318.3154 c -3.84732,-19.14272 -4.71294,-30.68365 -4.24708,-56.62454 0.33359,-18.57591 0.75034,-24.35853 2.30794,-32.02415 5.83412,-28.71233 16.06888,-53.88715 31.31153,-77.01819 8.62649,-13.0909 15.27369,-21.18514 27.01271,-32.89319 31.56375,-31.480482 70.3118,-51.426916 114.51907,-58.951279 21.56249,-3.670075 55.29373,-2.816326 76.88426,1.945968 84.17192,18.566076 148.4158,85.623781 162.66244,169.786941 4.71752,27.86907 2.78795,67.47433 -4.80637,98.65339 -16.59861,68.14685 -59.21959,142.74977 -123.95679,216.97158 -20.68697,23.7178 -73.69046,74.96985 -77.5318,74.96985 -0.55367,0 -2.30323,-0.95656 -3.88789,-2.12568 z m 27.67545,-238.51353 c 15.16601,-3.2858 29.1858,-9.16691 41.79698,-17.53326 9.45535,-6.27276 23.28354,-19.55327 29.04585,-27.89544 9.90836,-14.34449 18.23571,-32.94716 20.99415,-46.89931 2.13408,-10.79413 2.08862,-32.94359 -0.0914,-44.52804 -8.65094,-45.97057 -46.50873,-84.58806 -91.74559,-93.58668 -4.19347,-0.83416 -12.257,-1.2095 -25.13695,-1.17004 -17.49722,0.0536 -19.61063,0.23323 -27.34195,2.32392 -22.34346,6.04207 -37.74922,14.86601 -53.95341,30.90286 -25.72605,25.46038 -37.78151,58.76412 -34.30811,94.7776 2.67971,27.78414 14.55577,52.5799 34.62644,72.29572 18.2782,17.95505 38.63209,28.35002 63.77806,32.57219 9.82906,1.65036 31.94143,0.9925 42.33592,-1.25952 z"
     id="path3"
     transform="scale(0.75)" />
  <path
     style="fill:#ffffff;fill-opacity:0.9;stroke-width:0.881998"
     d="m 321.04737,381.9466 c -30.65291,-5.57277 -58.74632,-24.24412 -76.02513,-50.52758 -16.16281,-24.58587 -22.1912,-50.07983 -18.80559,-79.52846 4.75499,-41.35975 37.87162,-81.20598 78.7697,-94.77642 12.93101,-4.29065 20.41596,-5.18331 39.83682,-4.75098 15.4948,0.34493 18.7497,0.67867 26.35452,2.70224 31.00968,8.25138 59.35177,31.81928 74.44662,61.90618 12.57115,25.05669 15.27213,60.07616 6.56457,85.11283 -2.26519,6.51306 -10.97088,23.78037 -15.56376,30.86994 -15.9764,24.66117 -45.54092,43.49081 -76.76982,48.89467 -9.55422,1.65327 -29.96856,1.7046 -38.80793,0.0976 z"
     id="path4"
     transform="scale(0.75)" />
  <path
     style="fill:#ffffff;fill-opacity:0.9;stroke-width:0.881998"
     d="m 318.40138,380.88916 c -13.87229,-2.95082 -28.44108,-9.18349 -41.14312,-17.60143 -3.56663,-2.3637 -10.90641,-8.6673 -16.31061,-14.00801 -17.86001,-17.65018 -29.27418,-38.83593 -33.48407,-62.14953 -1.60082,-8.86509 -1.8334,-29.56683 -0.428,-38.09646 7.12705,-43.25521 41.71498,-81.51894 84.49473,-93.47433 5.79782,-1.62028 9.85052,-1.98129 25.94589,-2.31124 20.87661,-0.42797 27.94378,0.27182 38.64071,3.82621 31.00135,10.30115 58.90793,35.91334 71.5892,65.70334 5.3382,12.54014 7.95565,25.19254 8.48911,41.03522 0.77541,23.02833 -1.5408,33.69775 -11.6189,53.52153 -8.87042,17.44825 -15.59052,26.49664 -27.09879,36.48762 -15.67649,13.60966 -38.76971,24.59211 -58.06323,27.61316 -8.59833,1.34635 -33.68666,1.0123 -41.01292,-0.54608 z"
     id="path5"
     transform="scale(0.75)" />
</svg>
